<svg width="50" height="42" viewBox="0 0 50 42" fill="none" xmlns="http://www.w3.org/2000/svg"><path d="M49.6 33.4 44.6 40.2C42.6 41 40.6667 41.4 38.8 41.4 37.7333 41.4 36.5333 41.2 35.2 40.8 34 40.2667 32.8667 39.6 31.8 38.8 30.7333 37.8667 29.8 36.7333 29 35.4 28.3333 34.0667 28 32.5333 28 30.8 28 28.8 28.2 26.7333 28.6 24.6 29 22.4667 29.7333 20.1333 30.8 17.6 32 15.0667 33.6 12.4 35.6 9.59999 37.7333 6.8 40.4667 3.73333 43.8.399991 44.2.399991 44.5333.399991 44.8.399991 45.2.266659 45.5333.199994 45.8.199994 48.0667.199994 49.3333 1.19999 49.6 3.19999 49.4667 3.73333 49.0667 4.53333 48.4 5.6 47.8667 6.66666 47.2 7.73333 46.4 8.79999 45.7333 9.86666 45.0667 10.8667 44.4 11.8 43.8667 12.6 43.5333 13.0667 43.4 13.2 41.9333 15.8667 40.9333 18.8667 40.4 22.2h1C42.2 22.2 43 22.3333 43.8 22.6 44.7333 22.7333 45.6 23.2 46.4 24 47.2 24.8 47.8667 25.9333 48.4 27.4 49.0667 28.8667 49.4667 30.8667 49.6 33.4zm-28 0L16.6 40.2C14.6 41 12.6667 41.4 10.8 41.4 9.73334 41.4 8.53334 41.2 7.20001 40.8 6.00001 40.2667 4.86667 39.6 3.8 38.8 2.73334 37.8667 1.8 36.7333 1 35.4.333337 34.0667 357628e-11 32.5333 357628e-11 30.8 357628e-11 28.8.200003 26.7333.600002 24.6 1 22.4667 1.73334 20.1333 2.8 17.6 4 15.0667 5.6 12.4 7.60001 9.59999 9.73334 6.8 12.4667 3.73333 15.8.399991 16.2.399991 16.5333.399991 16.8.399991 17.2.266659 17.5333.199994 17.8.199994 20.0667.199994 21.3333 1.19999 21.6 3.19999 21.4667 3.73333 21.0667 4.53333 20.4 5.6 19.8667 6.66666 19.2 7.73333 18.4 8.79999 17.7333 9.86666 17.0667 10.8667 16.4 11.8 15.8667 12.6 15.5333 13.0667 15.4 13.2 13.9333 15.8667 12.9333 18.8667 12.4 22.2h1C14.2 22.2 15 22.3333 15.8 22.6 16.7333 22.7333 17.6 23.2 18.4 24 19.2 24.8 19.8667 25.9333 20.4 27.4 21.0667 28.8667 21.4667 30.8667 21.6 33.4z" fill="#dbdbdb"/></svg>