<svg width="14" height="26" viewBox="0 0 14 26" fill="none" xmlns="http://www.w3.org/2000/svg"><path d="M.295376 13.6727 12.2853 25.6295C12.6782 26.021 13.3142 26.0203 13.7064 25.6274 14.0982 25.2346 14.0972 24.5982 13.7043 24.2064L2.42806 12.9613 13.7047 1.71618C14.0976 1.32431 14.0986.688345 13.7068.295458 13.5102.0985088 13.2526 323596e-10 12.9951 323371e-10 12.7382 323146e-10 12.4816.0978488 12.2854.293432L.295376 12.2499C.106173 12.4382 115645e-11 12.6943 113312e-11 12.9613 110978e-11 13.2282.106476 13.4841.295376 13.6727z" fill="#ffbd54"/></svg>