<svg width="28" height="27" viewBox="0 0 28 27" fill="none" xmlns="http://www.w3.org/2000/svg"><path d="M23.5767 17.0502C21.3794 13.8373 19.0102 10.3118 13.4713 11.7959 11.0025 12.4575 9.35922 13.7306 8.44769 15.6883 7.64028 17.4223 7.49517 19.4591 7.34695 21.399 7.1631 23.777 9.63545 25.4664 11.7937 24.4196 13.5643 23.5604 15.9661 22.2685 19.8194 21.9914 21.3044 21.8846 21.4472 21.8926 21.8311 21.7897 23.837 21.2522 24.8075 18.8464 23.5767 17.0502z" fill="#fbdd7b"/><path d="M21.8312 21.7897C23.837 21.2522 24.8075 18.8463 23.5767 17.0502 21.3794 13.8373 19.0102 10.3118 13.4713 11.7959L16.3589 22.5725C19.1333 21.8291 20.9282 22.0317 21.8312 21.7897z" fill="#fecb3e"/><path d="M16.5662 16.4037 15.4814 16.6943 15.1908 15.6096C15.0945 15.2501 14.725 15.0368 14.3655 15.1331 14.0061 15.2294 13.7927 15.5989 13.889 15.9584L14.1797 17.0431 13.0949 17.3338C12.7355 17.4301 12.5221 17.7996 12.6185 18.1591 12.7148 18.5185 13.0843 18.7319 13.4437 18.6355L14.5285 18.3449 14.8192 19.4297C14.9155 19.7891 15.285 20.0024 15.6444 19.9061 16.0039 19.8098 16.2172 19.4403 16.1209 19.0809L15.8302 17.9961 16.915 17.7054C17.2745 17.6091 17.4878 17.2396 17.3915 16.8801 17.2952 16.5207 16.9257 16.3074 16.5662 16.4037z" fill="#fff8e0"/><path d="M16.1209 19.0809 15.8302 17.9961 16.915 17.7054C17.2745 17.6091 17.4878 17.2396 17.3915 16.8801 17.2952 16.5207 16.9257 16.3074 16.5662 16.4037L15.4814 16.6943 15.1908 15.6096C15.0945 15.2501 14.725 15.0368 14.3655 15.1331L15.6444 19.9061C16.0039 19.8098 16.2172 19.4403 16.1209 19.0809z" fill="#ffe799"/><path d="M21.2765 6.21228C19.9606 6.56488 19.1768 7.92234 19.5294 9.23826 19.8821 10.5542 21.2395 11.3379 22.5554 10.9853 23.8714 10.6327 24.6985 9.26363 24.3459 7.9477 23.9933 6.63178 22.5924 5.85968 21.2765 6.21228z" fill="#fecb3e"/><path d="M16.4203 8.91634C17.9321 8.51124 18.7456 6.64494 18.2373 4.74783 17.7289 2.85072 16.0913 1.6412 14.5794 2.0463 13.0676 2.45139 12.2541 4.3177 12.7624 6.21481 13.2708 8.11192 14.9084 9.32143 16.4203 8.91634z" fill="#fecb3e"/><path d="M9.47767 10.7766C10.9895 10.3715 11.803 8.5052 11.2947 6.60809 10.7864 4.71098 9.14869 3.50146 7.63685 3.90656 6.12501 4.31165 5.31151 6.17796 5.81984 8.07507 6.32817 9.97218 7.96584 11.1817 9.47767 10.7766z" fill="#fbdd7b"/><path d="M3.92002 10.8629C2.60409 11.2155 1.77698 12.5846 2.12958 13.9006 2.48218 15.2165 3.88302 15.9886 5.19895 15.636 6.51487 15.2834 7.2986 13.9259 6.946 12.61 6.5934 11.2941 5.23594 10.5103 3.92002 10.8629z" fill="#fbdd7b"/></svg>